HIERARCHY
ROOT Root
{
  OFFSET 0.0 0.0 0.0
  CHANNELS 6 Xposition Yposition Zposition Zrotation Yrotation Xrotation
  JOINT Hips
  {
    OFFSET 0.0 100.0 0.0
    CHANNELS 6 Xposition Yposition Zposition Zrotation Yrotation Xrotation
    JOINT Spine1
    {
      OFFSET 5.003913 -0.037094 -0.013727
      CHANNELS 3 Zrotation Yrotation Xrotation
      JOINT Spine2
      {
        OFFSET 7.125363 -1e-06 0.0
        CHANNELS 3 Zrotation Yrotation Xrotation
        JOINT Chest
        {
          OFFSET 7.594027 1e-06 0.0
          CHANNELS 3 Zrotation Yrotation Xrotation
          JOINT Neck1
          {
            OFFSET 26.313086 -0.460272 -0.181672
            CHANNELS 3 Zrotation Yrotation Xrotation
            JOINT Neck2
            {
              OFFSET 8.045911 0.0 0.0
              CHANNELS 3 Zrotation Yrotation Xrotation
              JOINT Head
              {
                OFFSET 6.432774 0.0 0.0
                CHANNELS 3 Zrotation Yrotation Xrotation
                JOINT HeadEnd
                {
                  OFFSET 16.169773 0.06451 0.00362
                  CHANNELS 3 Zrotation Yrotation Xrotation
                }
                JOINT Jaw
                {
                  OFFSET 0.108741 3.12938 0.002639
                  CHANNELS 3 Zrotation Yrotation Xrotation
                }
                JOINT LeftEye
                {
                  OFFSET 4.45173 8.166359 3.206392
                  CHANNELS 3 Zrotation Yrotation Xrotation
                }
                JOINT RightEye
                {
                  OFFSET 4.436895 8.135758 -3.222429
                  CHANNELS 3 Zrotation Yrotation Xrotation
                }
              }
            }
          }
          JOINT LeftShoulder
          {
            OFFSET 23.218927 5.195579 1.621656
            CHANNELS 3 Zrotation Yrotation Xrotation
            JOINT LeftArm
            {
              OFFSET 15.902118 2e-06 -2e-06
              CHANNELS 3 Zrotation Yrotation Xrotation
              JOINT LeftForeArm
              {
                OFFSET 28.739307 0.0 -1e-06
                CHANNELS 3 Zrotation Yrotation Xrotation
                JOINT LeftHand
                {
                  OFFSET 27.093981 -4e-06 0.0
                  CHANNELS 3 Zrotation Yrotation Xrotation
                  JOINT LeftHandThumb1
                  {
                    OFFSET 2.276781 3.380274 0.83384
                    CHANNELS 3 Zrotation Yrotation Xrotation
                    JOINT LeftHandThumb2
                    {
                      OFFSET 4.705309 -1e-06 -1e-06
                      CHANNELS 3 Zrotation Yrotation Xrotation
                      JOINT LeftHandThumb3
                      {
                        OFFSET 2.798515 0.0 3e-06
                        CHANNELS 3 Zrotation Yrotation Xrotation
                        JOINT LeftHandThumbEnd
                        {
                          OFFSET 3.180793 4e-06 -4e-06
                          CHANNELS 3 Zrotation Yrotation Xrotation
                        }
                      }
                    }
                  }
                  JOINT LeftHandIndex1
                  {
                    OFFSET 3.247786 2.352677 0.137192
                    CHANNELS 3 Zrotation Yrotation Xrotation
                    JOINT LeftHandIndex2
                    {
                      OFFSET 6.367095 1e-06 0.0
                      CHANNELS 3 Zrotation Yrotation Xrotation
                      JOINT LeftHandIndex3
                      {
                        OFFSET 3.662364 0.0 0.0
                        CHANNELS 3 Zrotation Yrotation Xrotation
                        JOINT LeftHandIndex4
                        {
                          OFFSET 2.329242 4e-06 -4e-06
                          CHANNELS 3 Zrotation Yrotation Xrotation
                          JOINT LeftHandIndexEnd
                          {
                            OFFSET 2.767823 1e-06 0.0
                            CHANNELS 3 Zrotation Yrotation Xrotation
                          }
                        }
                      }
                    }
                  }
                  JOINT LeftHandMiddle1
                  {
                    OFFSET 3.163612 0.945023 -0.406112
                    CHANNELS 3 Zrotation Yrotation Xrotation
                    JOINT LeftHandMiddle2
                    {
                      OFFSET 6.276789 3e-06 0.0
                      CHANNELS 3 Zrotation Yrotation Xrotation
                      JOINT LeftHandMiddle3
                      {
                        OFFSET 4.35652 -1e-06 4e-06
                        CHANNELS 3 Zrotation Yrotation Xrotation
                        JOINT LeftHandMiddle4
                        {
                          OFFSET 2.996877 0.0 8e-06
                          CHANNELS 3 Zrotation Yrotation Xrotation
                          JOINT LeftHandMiddleEnd
                          {
                            OFFSET 2.323256 3e-06 -4e-06
                            CHANNELS 3 Zrotation Yrotation Xrotation
                          }
                        }
                      }
                    }
                  }
                  JOINT LeftHandRing1
                  {
                    OFFSET 2.882606 -0.309162 0.107445
                    CHANNELS 3 Zrotation Yrotation Xrotation
                    JOINT LeftHandRing2
                    {
                      OFFSET 6.033198 0.0 4e-06
                      CHANNELS 3 Zrotation Yrotation Xrotation
                      JOINT LeftHandRing3
                      {
                        OFFSET 4.350578 3e-06 0.0
                        CHANNELS 3 Zrotation Yrotation Xrotation
                        JOINT LeftHandRing4
                        {
                          OFFSET 2.651321 2e-06 -7e-06
                          CHANNELS 3 Zrotation Yrotation Xrotation
                          JOINT LeftHandRingEnd
                          {
                            OFFSET 1.937663 1e-06 -4e-06
                            CHANNELS 3 Zrotation Yrotation Xrotation
                          }
                        }
                      }
                    }
                  }
                  JOINT LeftHandPinky1
                  {
                    OFFSET 2.865315 -1.525436 0.575687
                    CHANNELS 3 Zrotation Yrotation Xrotation
                    JOINT LeftHandPinky2
                    {
                      OFFSET 5.54936 1e-06 -8e-06
                      CHANNELS 3 Zrotation Yrotation Xrotation
                      JOINT LeftHandPinky3
                      {
                        OFFSET 3.070974 0.0 -4e-06
                        CHANNELS 3 Zrotation Yrotation Xrotation
                        JOINT LeftHandPinky4
                        {
                          OFFSET 1.549672 1e-06 0.0
                          CHANNELS 3 Zrotation Yrotation Xrotation
                          JOINT LeftHandPinkyEnd
                          {
                            OFFSET 1.952123 0.0 0.0
                            CHANNELS 3 Zrotation Yrotation Xrotation
                          }
                        }
                      }
                    }
                  }
                }
              }
            }
          }
          JOINT RightShoulder
          {
            OFFSET 23.161716 5.296122 -1.380114
            CHANNELS 3 Zrotation Yrotation Xrotation
            JOINT RightArm
            {
              OFFSET -16.027195 -2e-06 1.1e-05
              CHANNELS 3 Zrotation Yrotation Xrotation
              JOINT RightForeArm
              {
                OFFSET -28.736639 4e-06 2e-06
                CHANNELS 3 Zrotation Yrotation Xrotation
                JOINT RightHand
                {
                  OFFSET -27.133619 6e-06 0.0
                  CHANNELS 3 Zrotation Yrotation Xrotation
                  JOINT RightHandThumb1
                  {
                    OFFSET -2.274328 -3.351035 -0.83067
                    CHANNELS 3 Zrotation Yrotation Xrotation
                    JOINT RightHandThumb2
                    {
                      OFFSET -4.703594 -3e-06 2e-06
                      CHANNELS 3 Zrotation Yrotation Xrotation
                      JOINT RightHandThumb3
                      {
                        OFFSET -2.794935 -4e-06 -3e-06
                        CHANNELS 3 Zrotation Yrotation Xrotation
                        JOINT RightHandThumbEnd
                        {
                          OFFSET -3.183852 4e-06 1e-06
                          CHANNELS 3 Zrotation Yrotation Xrotation
                        }
                      }
                    }
                  }
                  JOINT RightHandIndex1
                  {
                    OFFSET -3.253496 -2.33755 -0.127667
                    CHANNELS 3 Zrotation Yrotation Xrotation
                    JOINT RightHandIndex2
                    {
                      OFFSET -6.344434 0.0 0.0
                      CHANNELS 3 Zrotation Yrotation Xrotation
                      JOINT RightHandIndex3
                      {
                        OFFSET -3.654871 0.0 -8e-06
                        CHANNELS 3 Zrotation Yrotation Xrotation
                        JOINT RightHandIndex4
                        {
                          OFFSET -2.327586 -1e-06 0.0
                          CHANNELS 3 Zrotation Yrotation Xrotation
                          JOINT RightHandIndexEnd
                          {
                            OFFSET -2.770001 3e-06 8e-06
                            CHANNELS 3 Zrotation Yrotation Xrotation
                          }
                        }
                      }
                    }
                  }
                  JOINT RightHandMiddle1
                  {
                    OFFSET -3.168223 -0.944764 0.411762
                    CHANNELS 3 Zrotation Yrotation Xrotation
                    JOINT RightHandMiddle2
                    {
                      OFFSET -6.266691 -1e-06 -4e-06
                      CHANNELS 3 Zrotation Yrotation Xrotation
                      JOINT RightHandMiddle3
                      {
                        OFFSET -4.348901 0.0 0.0
                        CHANNELS 3 Zrotation Yrotation Xrotation
                        JOINT RightHandMiddle4
                        {
                          OFFSET -3.00024 2e-06 -4e-06
                          CHANNELS 3 Zrotation Yrotation Xrotation
                          JOINT RightHandMiddleEnd
                          {
                            OFFSET -2.321477 -4e-06 -4e-06
                            CHANNELS 3 Zrotation Yrotation Xrotation
                          }
                        }
                      }
                    }
                  }
                  JOINT RightHandRing1
                  {
                    OFFSET -2.885654 0.293261 -0.119232
                    CHANNELS 3 Zrotation Yrotation Xrotation
                    JOINT RightHandRing2
                    {
                      OFFSET -6.032835 -1e-06 -4e-06
                      CHANNELS 3 Zrotation Yrotation Xrotation
                      JOINT RightHandRing3
                      {
                        OFFSET -4.33881 0.0 -4e-06
                        CHANNELS 3 Zrotation Yrotation Xrotation
                        JOINT RightHandRing4
                        {
                          OFFSET -2.654903 -4e-06 -4e-06
                          CHANNELS 3 Zrotation Yrotation Xrotation
                          JOINT RightHandRingEnd
                          {
                            OFFSET -1.935122 0.0 4e-06
                            CHANNELS 3 Zrotation Yrotation Xrotation
                          }
                        }
                      }
                    }
                  }
                  JOINT RightHandPinky1
                  {
                    OFFSET -2.866241 1.503904 -0.60527
                    CHANNELS 3 Zrotation Yrotation Xrotation
                    JOINT RightHandPinky2
                    {
                      OFFSET -5.553177 -2e-06 0.0
                      CHANNELS 3 Zrotation Yrotation Xrotation
                      JOINT RightHandPinky3
                      {
                        OFFSET -3.062664 -1e-06 -4e-06
                        CHANNELS 3 Zrotation Yrotation Xrotation
                        JOINT RightHandPinky4
                        {
                          OFFSET -1.546529 2e-06 4e-06
                          CHANNELS 3 Zrotation Yrotation Xrotation
                          JOINT RightHandPinkyEnd
                          {
                            OFFSET -1.952341 0.0 -4e-06
                            CHANNELS 3 Zrotation Yrotation Xrotation
                          }
                        }
                      }
                    }
                  }
                }
              }
            }
          }
        }
      }
    }
    JOINT LeftLeg
    {
      OFFSET -8.443107 2.567604 10.043214
      CHANNELS 3 Zrotation Yrotation Xrotation
      JOINT LeftShin
      {
        OFFSET 43.229198 1e-06 -1e-06
        CHANNELS 3 Zrotation Yrotation Xrotation
        JOINT LeftFoot
        {
          OFFSET 42.298611 1e-06 1e-06
          CHANNELS 3 Zrotation Yrotation Xrotation
          JOINT LeftToeBase
          {
            OFFSET 14.165858 1e-06 0.0
            CHANNELS 3 Zrotation Yrotation Xrotation
            JOINT LeftToeEnd
            {
              OFFSET 6.7141 -0.234461 0.0
              CHANNELS 3 Zrotation Yrotation Xrotation
            }
          }
        }
      }
    }
    JOINT RightLeg
    {
      OFFSET -8.303923 2.592729 -10.047278
      CHANNELS 3 Zrotation Yrotation Xrotation
      JOINT RightShin
      {
        OFFSET -43.369682 0.0 1e-06
        CHANNELS 3 Zrotation Yrotation Xrotation
        JOINT RightFoot
        {
          OFFSET -42.260784 4e-06 2e-06
          CHANNELS 3 Zrotation Yrotation Xrotation
          JOINT RightToeBase
          {
            OFFSET -14.222245 -2e-06 -1e-06
            CHANNELS 3 Zrotation Yrotation Xrotation
            JOINT RightToeEnd
            {
              OFFSET -6.660062 0.232574 -2e-06
              CHANNELS 3 Zrotation Yrotation Xrotation
            }
          }
        }
      }
    }
  }
}
MOTION
Frames: 4
Frame Time: 0.03333333333333333
0.0 0.0 0.0 0.0 -0.0 0.0 0.266612 89.592072 -12.369835 93.296082 -9.687717 87.726357 8.565718 -0.826844 2.153239 -8.412748 -0.193521 4.56717 22.710135 0.891363 5.271546 23.04232 0.787089 3.127702 -2.37678 -0.09828 -4.945265 -35.83231 0.773211 -6.899704 5e-06 0.0 0.0 -0.101198 0.067819 -0.243662 -0.009536 0.032225 -0.243056 -0.083917 0.096262 -0.2534 -73.763741 -69.659027 95.551086 -10.578207 -33.059612 33.709888 102.381218 -2.155221 0.121614 27.302841 5.857677 -2.360906 17.636776 -26.322836 52.411404 -19.466808 -14.395626 29.410549 3e-06 -8.774888 -1.5e-05 16.567854 -17.778961 6.17055 -0.609783 -1.795666 -3.889344 -4.807122 -11.046901 -2.937879 1.6e-05 -20.976244 -2.2e-05 -5.019982 -25.033926 -4.031967 6e-06 1e-06 3e-06 -10.634592 -5.687008 -3.565606 10.573341 -17.923092 -3.113928 1.2e-05 -13.821347 -1.6e-05 -0.501727 -31.181952 -4.027116 -10.951123 -61.889015 6.905843 -13.982784 -7.150243 -2.875057 13.772811 -8.401558 -3.21825 0.347769 -34.211945 0.771618 -0.96302 -17.733614 2.621039 -1e-06 -1e-06 -3e-06 -17.346518 -20.095348 -4.201806 21.75769 -1.638386 3.866471 5e-06 -6.338886 -9e-06 -1.697576 -22.59207 -6.194131 -1e-06 -5e-06 -1e-06 -174.555313 -75.291389 7.626588 39.286263 -17.305588 -34.811958 121.91507 -1.774365 -0.71151 33.845615 29.525928 46.58017 22.182178 -20.375977 49.933525 -16.701799 -16.743542 28.476606 2.1e-05 -12.690626 -7e-06 15.256027 -17.869501 2.77219 -0.105924 -1.51386 -4.275895 -5.039061 -5.612889 -2.953572 -1.5e-05 -11.020562 0.0 -6.11134 -15.895423 -3.840512 1e-06 -1e-06 2e-06 -10.283399 -5.680316 -4.341857 11.028295 -11.302415 -2.372627 -1.384294 -14.238631 -6.320154 -0.625467 -26.924318 -3.827645 -4.064757 -48.793808 -4.285724 -13.708562 -7.363511 -3.720958 18.141157 -14.052753 -3.242665 -2.6e-05 -18.787334 1e-06 -0.42973 -8.456085 2.555523 0.0 -0.0 0.0 -15.923594 -20.094563 -5.473604 30.419252 -7.190799 1.73596 -1.1e-05 -8.162951 4e-06 -1.861938 -22.861582 -6.167979 0.0 -3e-06 -1e-06 111.571663 -4.360149 -4.997765 84.058746 -0.196437 -0.432627 -98.804955 -0.721033 -7.364429 -11.140989 1.893372 1.963904 -1.000001 0.0 1e-06 7.712026 -1.581782 -7.224651 34.868343 -0.301776 0.24434 -87.934357 11.82291 3.123967 -29.080961 1.041702 1.310745 -0.999996 0.0 -1e-06 
0.0 0.0 0.0 0.0 -0.0 0.0 -0.36583 90.19664 5.374124 96.002922 -10.549158 88.21756 6.79167 -2.294607 2.007583 -9.336901 -0.19729 5.8786 21.418123 -1.782821 6.483321 26.274073 1.834978 2.612886 -2.206151 -0.582275 -4.796668 -36.134075 2.690706 -8.021592 5e-06 -1e-06 -0.0 -0.060024 -0.002965 -0.006773 -0.007663 -0.048175 -0.014239 -0.009099 0.034765 -0.01468 -62.783756 -67.38076 84.848434 -14.976998 -31.841799 37.234619 103.54747 -2.49967 1.090695 25.022667 4.892629 -0.234308 17.636641 -26.322573 52.410755 -19.466427 -14.395408 29.41007 6e-06 -8.774736 -2.5e-05 16.204338 -18.014605 5.756475 -0.609779 -1.79564 -3.889296 -4.807057 -11.046732 -2.937823 -1.3e-05 -20.975872 3e-05 -5.019929 -25.033394 -4.031839 7e-06 1e-06 -3e-06 -10.634463 -5.686934 -3.565573 10.573155 -17.922827 -3.113826 -6e-06 -13.821116 1.4e-05 -0.501797 -31.18129 -4.026959 -10.643062 -61.197464 6.171133 -13.982618 -7.150154 -2.875038 13.772596 -8.401437 -3.218168 0.347701 -34.211323 0.771692 -0.963036 -17.733284 2.621028 -1e-06 -2e-06 0.0 -17.3463 -20.095089 -4.20176 21.757366 -1.63836 3.866445 4e-06 -6.338783 3e-06 -1.697581 -22.59161 -6.193952 -0.0 -4e-06 -2e-06 -178.423492 -73.098824 11.610943 32.454521 -19.100187 -28.291842 118.810783 0.550182 -1.180975 34.820133 30.59239 40.328228 22.181868 -20.375669 49.932964 -16.701607 -16.743425 28.476292 2.2e-05 -12.690493 1.2e-05 15.61764 -18.233137 3.299846 -0.105919 -1.513844 -4.275851 -5.039009 -5.612824 -2.953529 -1.7e-05 -11.020403 -5e-06 -6.111266 -15.895174 -3.840461 -2e-06 0.0 0.0 -10.2833 -5.680255 -4.341798 11.028179 -11.302268 -2.372615 -1.384282 -14.238424 -6.320075 -0.625453 -26.923862 -3.827609 -4.29028 -50.074802 -3.921846 -13.70843 -7.363435 -3.720901 18.140966 -14.05255 -3.242647 -3.5e-05 -18.787064 -8e-06 -0.429727 -8.455956 2.555478 0.0 0.0 0.0 -15.923448 -20.094332 -5.473529 30.418964 -7.190681 1.735913 -1.6e-05 -8.16283 -0.0 -1.861929 -22.861206 -6.167905 -0.0 -4e-06 -1e-06 110.869774 -1.312371 -7.616084 64.947716 -0.232568 -0.267133 -90.868172 1.551001 -8.017475 -11.087008 1.638229 1.950507 -0.999997 -0.0 -0.0 18.967056 -2.99958 -7.945446 22.756367 0.074719 0.208642 -64.104622 8.470522 4.739682 -39.699703 1.221678 1.264019 -0.999999 0.0 -0.0 
0.0 0.0 0.0 0.0 -0.0 0.0 -1.018503 91.02388 23.14036 95.863541 -9.384958 89.366081 5.180357 -2.141423 2.287278 -9.761621 0.014774 6.500803 21.692202 -2.855872 6.840274 29.09259 0.984951 2.485109 -2.326607 -0.449379 -4.029966 -35.612232 4.798393 -8.483668 2e-06 -1e-06 -0.0 -0.066353 -0.114194 0.277928 -0.135031 -0.239615 0.262919 -0.03859 -0.002223 0.279633 -68.573006 -67.988541 92.034912 -11.536867 -30.248108 31.751328 101.204681 -1.80529 1.179036 21.665497 10.320519 2.140915 17.636663 -26.322935 52.411678 -19.466909 -14.395749 29.410753 -1.7e-05 -8.77492 8e-06 15.861163 -17.711966 5.793125 -0.609777 -1.795668 -3.889363 -4.807116 -11.046903 -2.937887 4.4e-05 -20.976246 -2.8e-05 -5.019971 -25.033901 -4.031957 7e-06 -3e-06 3e-06 -10.634597 -5.687008 -3.565616 10.5734 -17.923109 -3.113966 2.5e-05 -13.821359 -1e-05 -0.501706 -31.181986 -4.027093 -10.412316 -60.622375 6.486972 -13.982797 -7.150236 -2.875065 13.772859 -8.401579 -3.218298 0.347805 -34.211967 0.771633 -0.963024 -17.733629 2.621079 -1e-06 2e-06 2e-06 -17.346518 -20.095346 -4.201824 21.757748 -1.63841 3.866432 9e-06 -6.338888 -5e-06 -1.697557 -22.592064 -6.194118 0.0 -2e-06 -3e-06 -176.512177 -74.684616 12.117291 22.963533 -17.18412 -14.53904 110.126648 0.434765 -1.462638 38.608028 27.179337 37.907925 22.182304 -20.37616 49.933491 -16.701931 -16.743624 28.476669 -2.7e-05 -12.690688 -6e-06 16.848181 -19.062786 3.2072 -0.105918 -1.513863 -4.275899 -5.039062 -5.612907 -2.953566 2.5e-05 -11.020655 2.6e-05 -6.11133 -15.895541 -3.840461 2e-06 1e-06 1e-06 -10.283416 -5.680305 -4.341855 11.028378 -11.302535 -2.372622 -1.384262 -14.238744 -6.320137 -0.625458 -26.924644 -3.827546 -4.438159 -51.227509 -3.839888 -13.708586 -7.3635 -3.720953 18.141285 -14.052912 -3.24267 2.4e-05 -18.787525 4.6e-05 -0.429709 -8.456195 2.555562 0.0 -0.0 1e-06 -15.923599 -20.094593 -5.473584 30.419388 -7.190942 1.735941 1.4e-05 -8.163035 1.3e-05 -1.861894 -22.861855 -6.167956 -0.0 -6e-06 -0.0 117.717766 1.21611 -5.631438 45.420265 -0.320412 -0.182284 -81.078201 0.146243 -6.821213 -10.503879 1.681167 2.101833 -1.000001 0.0 -0.0 23.264414 -1.417196 -5.909912 25.013237 -0.231677 0.135058 -39.096573 5.880784 -0.533419 -12.486887 0.891052 1.175349 -1.000001 -1e-06 0.0 
0.0 0.0 0.0 0.0 -0.0 0.0 -1.715743 91.278793 38.760948 94.765678 -7.09227 90.563011 4.612617 -1.327245 2.184237 -10.007498 -0.008489 6.38596 22.28047 -3.403733 5.864652 31.153957 0.282664 2.120181 -2.577476 -0.437342 -2.473849 -35.585793 6.188608 -7.470059 3e-06 -1e-06 -0.0 -0.04131 -0.165278 0.401891 -0.350022 -0.293274 0.328747 -0.237882 -0.051164 0.467335 -76.90107 -68.457451 100.162636 -2.512277 -30.691244 24.231123 97.405441 -1.384614 0.78754 19.221092 15.238615 4.16562 17.636679 -26.322723 52.411175 -19.466692 -14.395613 29.410395 1e-06 -8.774847 -7e-06 15.752141 -18.311634 6.109141 -0.609777 -1.795656 -3.88933 -4.807099 -11.046824 -2.937854 3e-06 -20.976067 -3e-06 -5.019983 -25.033655 -4.031912 7e-06 1e-06 3e-06 -10.634546 -5.686978 -3.565586 10.573286 -17.922977 -3.113903 3e-06 -13.821239 -3e-06 -0.501764 -31.181644 -4.027044 -11.423496 -60.554676 7.245018 -13.982735 -7.150209 -2.87504 13.77275 -8.4015 -3.218243 0.347741 -34.211639 0.771645 -0.963027 -17.733446 2.621032 -4e-06 1e-06 1e-06 -17.346455 -20.095249 -4.201775 21.757601 -1.638375 3.866438 0.0 -6.33884 -2e-06 -1.697591 -22.591843 -6.194034 -0.0 -4e-06 -3e-06 -175.983398 -72.606781 13.420603 19.386812 -19.190128 3.880709 94.791138 0.486302 -2.911678 31.372828 17.93223 34.98962 22.18222 -20.376074 49.933666 -16.701931 -16.743624 28.476774 2e-06 -12.6907 2e-06 17.943419 -18.743027 2.607587 -0.105926 -1.513866 -4.275907 -5.039071 -5.612918 -2.953584 2e-06 -11.020649 2e-06 -6.111355 -15.89558 -3.840528 -2e-06 1e-06 3e-06 -10.283422 -5.680326 -4.341867 11.028359 -11.302494 -2.372649 -1.384279 -14.238739 -6.320194 -0.625443 -26.924612 -3.827667 -4.54069 -51.418564 -4.038082 -13.708589 -7.363524 -3.720965 18.141258 -14.052858 -3.242694 -4e-06 -18.787495 3e-06 -0.429725 -8.45617 2.555547 1e-06 1e-06 -2e-06 -15.923618 -20.094618 -5.473616 30.419386 -7.190873 1.735933 -0.0 -8.163016 5e-06 -1.861914 -22.861828 -6.168029 -0.0 -3e-06 -3e-06 127.075943 1.905318 -3.993359 37.758301 -0.44112 -0.255979 -75.626114 -0.142493 -7.738981 -9.305205 1.520471 2.092434 -1.0 0.0 0.0 19.190248 0.106544 -4.766208 44.267239 -0.435421 0.069669 -42.80188 5.050281 -3.050779 -9.183227 0.89784 1.342721 -1.000003 -0.0 0.0 
